<?xml version="1.0" encoding="UTF-8"?><svg xmlns="http://www.w3.org/2000/svg" xmlns:xlink="http://www.w3.org/1999/xlink" height="142.3" preserveAspectRatio="xMidYMid meet" version="1.0" viewBox="-1.0 178.4 501.2 142.3" width="501.2" zoomAndPan="magnify"><g fill="#FFF" id="change1_1"><path d="M498.3,252.1c-0.8,1-1.9,1.9-2.5,3.1c-0.9,2.4-1.1,5.1-2.4,7.3c-0.9,1.7-3.1,4.1-4.3,3.9 c-1.7-0.2-3.6-2.4-4.6-4.2c-1.1-2-1.7-4.6-1.7-7c-0.2-10-0.3-20-0.1-30c0.1-7.9-0.9-9.8-8.4-12.1c-5.1-1.7-7.4-0.8-9.2,4.5 c-2.7,7.9-5.1,16.1-7.6,24.1c-0.3,1-0.7,1.9-1,2.9c-0.9-1.5-1.2-2.8-1.2-4.2c-0.2-6.2-0.5-12.6-0.8-18.8c-0.2-5.1-3.1-7.8-8.6-9.1 c-4.9-1.1-6.7,2.2-8.2,5.7c-1.2,2.9-2.3,5.9-3.4,8.8c-1,2.8-2,5.8-3.2,9.1c-0.5-0.8-0.7-0.9-0.7-1.1c0-4.5-0.1-9.2-0.1-13.7 c0-6.8-0.2-7.1-6.8-8.4c-4.5-0.9-5.4-0.2-5.6,4.3c-0.1,10.3,0.1,20.6-0.5,31c-0.2,4.4-1.6,9-3.2,13.2c-1,2.9-2.8,6.5-6.9,5.9 c-4.2-0.6-4.6-4.5-4.8-7.7c-0.2-12.7-0.3-25.4-0.2-38.2c0-3.4-0.1-6-4-6.9c-3.7-0.9-7.7-2.7-9.6,2.7c-11.9-9.2-21.8-6.9-28.5,6.6 c-4.8,9.6-5.3,20.1-4.3,30.6c0.2,1.8,0.7,3.9,0.2,5.6c-0.9,3.4-2.2,7.3-6.6,7.5c-4.4,0.2-5.9-3.5-6.3-6.8c-0.8-5.3-1.4-10.8-1-16.1 c0.5-6.2,2.2-12.4,3.3-18.6c1-5.6-1.6-8.6-7.3-8.3c-2.2,0.1-4.2,0.7-6.3,0.9c-2.5,0.3-4.9,0.8-7.4,1.1c0.2-0.3,0.6-0.8,0.8-1.1 c-1.4-2.6-2.2-6.1-4.3-7.5c-1.8-1.1-5.7-0.5-7.9,0.7c-4.4,2.4-5.7,9.6-2.4,13.6c1.9,2.3,2,4.3,0.9,6.6c-3.6,7.7-7.3,15.5-11,23.2 c-0.5,1-1.5,1.9-2.2,2.8c-0.9-1.8-0.9-3.3-0.9-4.9c0.1-10.9,0.2-21.8,0.2-32.7c0-1.6-0.3-3.6-1.2-4.6c-3.4-3.3-9.3-2.6-12.2,1.2 c-0.5-0.3-0.9-0.6-1.4-0.9c-8.5-7.1-18.1-5.9-24.3,3.3c-7.1,10.7-7.7,22.7-7.3,35c0.1,3.4-1,7.4-2.8,10.3c-2.5,4.3-7,3.6-8.7-1 c-0.9-2.5-1.5-5.3-1.5-7.9c-0.1-11.9-0.1-23.7,0.2-35.6c0.1-4.9-2.9-5.6-6.5-6.3c-3.3-0.7-6.1-0.7-6.8,3.9 c-8.8-7.9-17.9-8.3-24.1-0.7c-2.9,3.5-5.4,7.9-6.7,12.2c-1.7,5.7-2.2,11.8-2.8,17.7c-0.8,6.5-3.2,12.1-7.9,16.7 c-3.3,3.1-6.1,2.5-7.7-1.6c-1-2.9-1.8-6.1-1.8-9.2c0.1-13.3,0.5-26.6,0.7-39.9c0-2.4,1-3.4,3.4-3.3c3.9,0,7.7-0.1,11.6-0.1 c3.4,0,4.4-2,4.6-4.9c0.3-3.3-2-3.3-4.2-3.4c-1.7-0.1-3.4-0.1-5.1-0.2c-9.8-0.3-9.8-0.3-9.4-9.9c0-0.5,0-0.9,0-1.2 c0.2-7.5,0.1-7.7-7.4-9.3c-0.6-0.1-1.1-0.2-1.7-0.3c-3.1-0.7-4.6,0.5-4.9,3.6c-0.2,4.2-0.6,8.3-0.6,12.5c0,2.8-1.1,3.9-4,3.5 c-2.7-0.2-5.4-0.3-8.2-0.3c-4.1,0.1-4,3.4-4.4,6.1c-0.5,3.2,1.8,3.3,4.1,3.3c2.6,0,5.1,0.2,7.7,0.2c2.7,0,3.7,1.1,3.7,3.9 c-0.1,8.7,0.1,17.5-0.3,26.2c-0.3,7.4-4.2,13.4-10.2,19.5c1.1-16.1-12.6-20-20.4-27.9c2-3.9,4.3-7.3,5.6-11 c1.9-5.6-0.7-8.6-6.5-8.4c-9.8,0.3-16,11.5-11.6,20.2c0.8,1.5,0.9,4,0.2,5.3c-3.5,6.7-7.3,13.3-11.5,19.6c-0.8,2.4-3.6,4.1-5.9,6 c-0.8-2.9-2.4-5.8-2.4-8.7c-0.1-10.2,0.3-20.3,0.7-30.5c0.1-3.7-1.2-6.2-4.3-8.2c-6.9-4.2-12.1-4-16.9,2.5 c-3.9,5.2-6.6,11.3-9.5,17.1c-1.4,2.6-2,5.3-3.1,8c-0.3-0.1-0.7-0.1-1.1-0.2c0-1.5,0-3.1,0-4.5c0.1-6.6,0.2-13.2,0.2-19.7 c0-3.5-4.1-6.1-8.8-6c-3.9,0.1-3.2,3.1-3.2,5.3c-0.1,15.2-0.1,30.4-0.2,45.5c0,1.8,0.1,3.7,0.5,5.6c0.9,4.8,2.8,6,7.7,6.1 c4.6,0.1,4.6-2.9,5.2-6.1c2.7-14.4,6.8-28.3,15.2-40.7c1.1-1.7,2.7-3.3,4.2-4.9c1,2.4,1,4.2,1,6c-0.1,11.5-0.5,22.9-0.1,34.4 c0.1,4.3,1,9.2,6.1,10.9c5,1.7,9-1,12.2-4.4c2.7-2.7,5.2-5.8,7.3-9c3.9-5.9,7.3-12,10.9-18c0.8-1.4,1.7-2.6,3.2-4.8 c4.1,4.5,8.2,8.4,11.3,12.8s2.5,10.3-0.6,13c-2.7,2.5-6,1.9-11.2-1.6c-3.9-2.6-5.6-2.3-8,1.6c-2.7,4.3-2,6.6,2.7,8.7 c12.4,5.6,26.8,1.9,35-9.1c2.4-3.2,4.3-6.7,6.8-10.5c1.1,4,1.8,7.4,2.9,10.7c1.9,5.6,5.2,9.9,11.6,10.8c6.3,0.9,10.1-3.1,13.4-7.6 c1.6-2.3,2.8-4.6,4.4-7.4c6.2,18.7,23.8,20.2,34.9,4c7.4,14.3,14.3,14.9,26.8,2.3c11.2,11.8,14.2,11.9,30.8,1 c0.2,0.2,0.5,0.3,0.6,0.6c0.8,2.9-0.7,4.8-2.6,6.7c-7.1,7.1-15.1,13.8-21,22c-7.9,11.1-0.8,23.6,12.9,24.1 c5.3,0.2,9.8-1.6,13.7-5.1c4.2-3.7,6.7-8.5,7.1-13.8c1-9.3,1-18.8,1.8-28.1c0.2-2.6,1-5.7,2.6-7.7c7.8-10,14.3-20.7,19-32.4 c2.6-6.3,5.2-7.6,12.4-5.3c-0.2,1.5-0.6,2.9-0.7,4.5c-0.6,7.1-1.5,14.2-1.6,21.3c-0.1,5.7,1.5,11.1,5.2,15.5 c6.5,7.7,15.9,7.5,22-0.5c0.7-0.8,1.4-1.6,2.3-2.7c4.1,6.5,9.4,9.6,16.8,8.6c7-1,11.3-5.8,15.5-11.6c2.2,6.2,5.3,10.5,11.6,11.7 c6.6,1.1,10.7-2.4,13.3-7.8c1.6,2.7,2.3,5.7,4.1,6.8c6.7,4,11.9,0.8,12.1-6.7c0-2,0-4,0.1-6c0.5-10,2.8-19.5,7-28.6 c0.7-1.4,1.7-2.6,3.1-4.6c0.2,2,0.5,2.9,0.5,3.7c1,10.1,1.9,20.2,3.2,30.3c0.2,2.3,1.5,5.1,3.2,6.2c2.2,1.4,5.3,1.9,7.8,1.6 c1-0.1,2-3.5,2.5-5.6c2.2-9.4,4-18.9,6.1-28.5c0.6-2.5,1.9-4.8,2.9-7.1c0.8,1,0.9,1.9,1,2.7c0.2,7.6,0.2,15.2,0.7,22.7 c0.3,5.8,1.5,11.3,5.3,16c6.5,7.7,16.9,6.5,20.9-2.6c1.5-3.5,2.2-7.4,2.7-11.1C500.2,254.8,498.9,253.5,498.3,252.1z M222.8,258.9 c-1.6,4.1-4.1,8.3-9.1,7.8c-5.2-0.5-6.5-5.2-7.3-9.4c-0.8-3.6-0.9-7.4-1.6-12.6c1-4.5,1.8-10.7,3.6-16.4c1.6-5,5.3-7.5,9.1-7 c4.9,0.6,6.7,4.3,7.5,8.3C227.2,239.4,226.6,249.4,222.8,258.9z M283.2,256.2c-0.5,1.9-1.1,4.2-2.5,5.4c-2.3,2.2-5,4.6-7.8,5 c-3.6,0.5-5.4-3.3-6.3-6.6c-3.1-10.7-2.5-21.2,1.5-31.5c0.7-1.7,1.7-3.3,2.9-4.6c4.3-4.6,10.7-3.6,12.6,2.3c1.5,4.3,1.7,9,2.5,13.6 C285.3,245.3,284.4,250.9,283.2,256.2z M283.4,309.7c-1.9,4.3-6.6,6.1-10.3,4.6c-3.4-1.4-5.1-5.2-3.9-9.9 c2.7-9.6,9.8-16.2,16.9-22.7C287.2,291.6,287.3,300.9,283.4,309.7z M386.8,257.4c-0.7,2.5-2.3,5-4.1,6.9c-3.7,4.1-8.3,3.4-10.8-1.5 c-1.2-2.4-2.3-5.1-2.4-7.7c-0.1-7.4,0.1-14.9,0.8-22.2c0.2-2.8,1.7-5.8,3.4-8.2c4-5.7,11.1-4.9,13.5,1.6c1.6,4.4,1.9,9.4,2.9,14.4 C389.1,246.3,388.3,252,386.8,257.4z" fill="inherit"/><path d="M10.2,234.6c1.7,1,3.7,1.1,5.7,1.7c0.3-0.2,0.6-0.5,0.9-0.8c-9.9-17.9-5.1-33.1,6.8-47.1 c0.6,0.1,1.1,0.2,1.6,0.3c0.1,1.1,0.2,2.3,0.2,3.4c-0.1,24.5-0.1,49-0.5,73.4c-0.1,5.2-1.6,10.4-2.4,15.6c-0.2,1.5-0.5,2.8-0.9,5 c5.8-0.7,9.6-3.5,11.5-7.6c2.5-5.6,5-11.6,5.1-17.5c0.7-24.7,0.5-49.5,0.5-74.3c0-1.6-1-3.9-2.3-4.6c-3.7-2.5-8-3.7-12.5-1.2 c-13.3,7.4-21.4,18.7-23.7,33.8C-1,223.4,2.6,230.2,10.2,234.6z" fill="inherit"/></g></svg>